<svg width="62" height="150" viewBox="0 0 62 150" fill="none" xmlns="http://www.w3.org/2000/svg">
<g clip-path="url(#clip0_1182_16364)">
<path d="M17.5766 9.01172C17.12 10.4851 16.8665 11.9823 16.8161 13.5033C16.7264 16.1644 16.7544 18.8282 16.9001 21.4949C16.9085 21.6322 16.8455 21.6854 16.711 21.6546C16.4954 21.6042 16.3651 21.5901 16.3203 21.6126" stroke="#40061C" stroke-width="2"/>
<path d="M43.5244 28.2422C42.3087 28.4523 41.3507 28.9733 40.6504 29.8052C40.1966 30.3472 40.058 31.196 39.7891 31.738C39.537 32.2394 39.3465 32.7352 39.2177 33.2254C38.7443 35.0209 38.3591 36.682 38.0622 38.2086C37.9418 38.8388 37.6882 39.7786 37.3017 41.0279C37.0048 41.9803 36.7961 42.9313 36.6756 43.8808C36.6084 44.4159 36.5076 44.8976 36.3731 45.3262C36.2247 45.794 36.0762 46.2632 35.9277 46.7338" stroke="#40061C" stroke-width="2"/>
<path d="M35.9279 46.733L36.1967 45.3465C36.2051 45.3073 36.1898 45.2778 36.1506 45.2582H36.1464C36.1099 45.2386 36.0805 45.254 36.0581 45.3045C35.1618 47.5538 34.5189 49.789 34.1295 52.0103C34.0567 52.4193 34.0273 52.4165 34.0413 52.0019L34.0875 50.7918L34.0834 50.7876C33.3103 53.8969 32.9279 55.6406 31.9531 58.191C30.9615 60.7876 30.152 63.5005 29.5245 66.3297C29.4097 66.8507 29.1547 67.5748 28.7598 68.5019" stroke="#5B0A1C" stroke-width="2"/>
<path d="M28.7595 68.5039C27.9864 70.6608 27.1111 73.8036 26.1335 77.9325C25.6993 79.7756 24.8296 82.5095 23.5242 86.1342C22.9234 87.8064 22.7848 88.9367 22.3772 91.2308C22.2175 92.1258 21.7974 93.3568 20.7344 93.2938" stroke="#40061C" stroke-width="2"/>
<path d="M52.7435 42.3281C52.6216 42.8071 52.6006 43.1433 52.8569 43.618C53.039 43.9486 53.158 44.3043 53.214 44.6853C53.214 44.6909 53.2154 44.6895 53.2182 44.6811C53.2182 44.6783 53.2182 44.6741 53.2182 44.6685C53.2266 44.6489 53.2294 44.632 53.2266 44.618C53.221 44.5452 53.2351 44.4752 53.2687 44.408" stroke="#40061C" stroke-width="2"/>
<path d="M53.3106 45.6211C52.4562 47.0693 52.0207 48.3452 52.0039 49.4488" stroke="#40061C" stroke-width="2"/>
<path d="M54.2323 63.961C52.8037 64.2075 51.7336 64.2356 51.0221 64.0451C49.5823 63.6585 48.228 63.4148 46.9591 63.314C46.8135 63.3028 46.6958 63.3546 46.6061 63.4695C44.7546 65.8448 43.6216 68.6011 43.2071 71.7384C42.9325 73.8308 42.8344 75.5731 42.9129 76.9653C43.0865 80.0017 44.4185 82.5549 46.9087 84.6249C47.0151 84.7146 47.0501 84.8252 47.0137 84.9568C46.9549 85.1753 46.8232 85.4414 46.6188 85.7552C46.4759 85.9793 46.4101 86.2062 46.4213 86.4358C46.4325 86.6767 46.4899 86.919 46.5935 87.1627" stroke="#1B0400" stroke-width="2"/>
<path d="M49.904 121.034C48.4642 120.622 47.2808 120.44 46.3536 120.488C41.8662 120.719 39.2527 126.341 37.3535 129.715" stroke="#1B0400" stroke-width="2"/>
<path d="M40.8867 138.23C41.4581 139.351 41.79 140.582 41.8825 141.924C41.8881 141.991 41.8839 143.247 41.8698 145.693C41.8642 146.978 41.8292 148.39 41.7648 149.928C41.762 150.018 41.804 150.062 41.8909 150.062H48.8993C49.0302 150.062 49.1563 150.013 49.2526 149.925C49.349 149.837 49.4088 149.717 49.4204 149.588L49.7943 145.68" stroke="#1B0400" stroke-width="2"/>
<path d="M28.7604 68.5033C28.1162 71.0523 27.5223 73.6139 26.9789 76.1882C26.4971 78.4599 25.9313 80.6055 25.2814 82.6251C24.5755 84.8128 23.8865 87.0061 23.2142 89.205C23.0294 89.8128 22.8627 90.4781 22.7143 91.2008C22.5714 91.8842 22.4215 92.5691 22.2646 93.2554C22.2478 93.3226 22.2744 93.3562 22.3445 93.3562H22.4916C22.5084 93.3562 22.5196 93.3478 22.5252 93.331C23.0994 90.894 23.6302 89.1769 24.1176 88.1798C25.1316 86.1125 25.9145 84.1349 26.4663 82.247C26.752 81.275 27.0279 79.831 27.294 77.915C27.5966 75.7386 27.8627 74.289 28.0924 73.5663C29.1428 70.2554 29.7604 68.7344 30.2184 66.0579C30.3865 65.0803 30.6484 63.9459 31.0042 62.6545C31.0126 62.6237 31.0265 62.6209 31.0461 62.6461C31.0713 62.677 31.1049 62.6952 31.147 62.7008C31.1778 62.7036 31.196 62.6896 31.2016 62.6587C31.2212 62.5383 31.2548 62.4375 31.3025 62.3562C31.4397 62.1069 31.479 62.1307 31.4201 62.4277C30.5966 66.6069 29.7969 70.5145 29.021 74.1503C28.8277 75.0495 28.7142 76.2176 28.5293 77.247C28.5125 77.3394 28.5503 77.3856 28.6428 77.3856H28.7478C28.7814 77.3856 28.8025 77.3688 28.8109 77.3352C29.5588 73.9851 30.0573 71.5747 30.3066 70.1041C30.7212 67.6531 31.2912 65.2638 32.0167 62.9361C32.5798 61.1321 33.4215 57.9655 34.5419 53.4361C35.091 51.212 35.5532 48.9781 35.9285 46.7344" stroke="#1B0400" stroke-width="2"/>
<path d="M17.5764 9.0131C17.1198 10.4865 16.8663 11.9837 16.8158 13.5047C16.7262 16.1658 16.7542 18.8296 16.8999 21.4963C16.9083 21.6335 16.8453 21.6868 16.7108 21.656C16.4951 21.6055 16.3649 21.5915 16.3201 21.6139C15.7206 21.5859 15.3719 21.3884 15.2739 21.0215C15.2094 20.789 15.2696 20.4669 15.4545 20.0551C15.9713 18.9039 16.4797 17.3156 15.2024 16.6602C14.404 16.2484 14.0805 15.7484 13.8747 15.0593C13.8331 14.9215 13.8363 14.774 13.8839 14.6381C13.9315 14.5022 14.0209 14.3849 14.1393 14.303C15.1645 13.6055 15.7962 12.5747 16.0343 11.2106C16.1771 10.3983 16.2808 9.70217 16.3452 9.12234C16.362 8.97388 16.4447 8.88985 16.5931 8.87024C16.9125 8.82822 17.2402 8.87584 17.5764 9.0131Z" fill="black"/>
<path d="M43.5252 28.2422C43.993 29.0013 44.4818 29.7632 44.9916 30.5279C45.4258 31.1862 45.9678 31.9117 46.6176 32.7044C48.1526 34.5783 49.3459 36.1455 50.1975 37.4061C51.0574 38.6834 51.9062 40.3234 52.7437 42.3262C52.6219 42.8052 52.6009 43.1413 52.8572 43.6161C53.0392 43.9467 53.1582 44.3024 53.2142 44.6834C53.2142 44.689 53.2156 44.6876 53.2184 44.6792C53.2184 44.6764 53.2184 44.6722 53.2184 44.6666C53.2268 44.6469 53.2297 44.6301 53.2269 44.6161C53.2213 44.5433 53.2353 44.4733 53.2689 44.4061C53.3585 44.871 53.3725 45.2758 53.3109 45.6203C52.4565 47.0685 52.021 48.3444 52.0042 49.4481C52.2199 50.4929 52.4664 51.3374 52.7437 51.9817C53.2437 53.1455 54.0462 54.3388 54.4789 55.7002C54.6806 56.3248 55.0672 57.2114 55.6386 58.3598C56.3025 59.6834 56.6345 60.843 55.6975 61.9901C54.9664 62.8808 54.4776 63.5377 54.2311 63.9607C52.8025 64.2072 51.7325 64.2352 51.021 64.0447C49.5812 63.6582 48.2269 63.4145 46.958 63.3136C46.8123 63.3024 46.6946 63.3542 46.605 63.4691C44.7535 65.8444 43.6205 68.6007 43.2059 71.738C42.9314 73.8304 42.8333 75.5727 42.9117 76.9649C43.0854 80.0013 44.4173 82.5545 46.9075 84.6245C47.014 84.7142 47.049 84.8248 47.0126 84.9565C46.9537 85.175 46.8221 85.4411 46.6176 85.7548C46.4748 85.9789 46.4089 86.2058 46.4202 86.4355C46.4314 86.6764 46.4887 86.9187 46.5924 87.1624C46.5364 89.1736 46.4677 90.4677 46.3865 91.0447C46.168 92.6021 45.6064 94.1063 44.7016 95.5573C44.6232 95.6834 44.5392 96.0111 44.4496 96.5405C44.2843 97.5069 44.5504 98.2128 45.2479 98.6582C45.4467 98.7842 45.9075 98.8696 46.6302 98.9145C47.5938 98.9733 48.1289 99.6021 48.2353 100.801C48.4006 102.613 48.2353 105.221 47.7395 108.625C47.6499 109.246 47.4117 109.998 47.0252 110.881C46.3529 112.423 46.1975 114.339 46.3614 115.91C46.4118 116.381 46.7605 116.997 47.4076 117.759C48.2899 118.801 49.1219 119.892 49.9034 121.032C48.4636 120.62 47.2801 120.438 46.353 120.486C41.8656 120.717 39.2521 126.339 37.3529 129.713C36.6806 130.679 36.3431 131.455 36.3403 132.041C36.3291 133.273 36.3067 134.569 36.2731 135.927C36.2171 138.232 36.6681 140.396 37.6261 142.419C37.6788 142.529 37.7614 142.622 37.8644 142.688C37.9674 142.754 38.0866 142.79 38.2085 142.791C38.3304 142.792 38.4499 142.759 38.5535 142.696C38.6571 142.632 38.7405 142.54 38.7941 142.431L40.8866 138.23C41.458 139.35 41.7899 140.581 41.8823 141.923C41.8879 141.99 41.8837 143.246 41.8697 145.692C41.8641 146.977 41.8291 148.389 41.7647 149.927C41.7619 150.017 41.8039 150.062 41.8907 150.062H48.8991C49.03 150.061 49.1561 150.012 49.2525 149.924C49.3489 149.836 49.4087 149.716 49.4202 149.587L49.7941 145.679L51.4706 149.721C51.5686 149.959 51.7451 150.099 52 150.141C58.8655 151.28 65.6344 150.633 72.479 150.788C79.5378 150.948 86.3403 150.599 92.5588 150.519C95.3235 150.486 98.1247 150.41 100.962 150.293C104.62 150.141 110.709 149.991 119.227 149.843C119.549 149.837 120.354 149.822 121.643 149.797C127.573 149.682 145.394 149.627 175.105 149.633C177.45 149.633 180.251 149.619 183.508 149.591C191.525 149.518 199.543 149.527 207.563 149.616V178.15H-1473.11V155.692L-1430.24 155.818C-1421.1 155.787 -1411.97 155.776 -1402.84 155.784C-1399.25 155.787 -1393.12 155.793 -1384.45 155.801C-1380.73 155.807 -1371.49 155.695 -1356.72 155.465C-1356.24 155.459 -1354.9 155.468 -1352.73 155.49C-1351.14 155.503 -1348.33 155.721 -1347.65 154.864C-1347.61 154.811 -1347.58 154.75 -1347.56 154.683C-1347.54 154.616 -1347.54 154.546 -1347.55 154.477C-1347.65 153.772 -1347.8 153.267 -1347.98 152.965C-1350.61 148.696 -1354.36 146.004 -1359.25 144.889C-1362.05 144.248 -1364.56 143.896 -1366.77 143.835C-1376.08 143.578 -1380.07 143.524 -1384.82 143.125C-1386.39 142.996 -1387.92 142.833 -1389.41 142.637C-1397.05 141.634 -1402.39 140.956 -1405.41 140.604C-1405.55 140.587 -1405.66 140.636 -1405.74 140.751C-1406.7 142.154 -1407.49 143.969 -1410.08 144.095C-1419.83 144.569 -1428.74 144.497 -1436.81 143.881C-1437.88 143.8 -1438.41 143.2 -1438.4 142.083C-1438.33 135.085 -1438.29 130.942 -1438.3 129.654C-1438.31 128.62 -1438.35 127.619 -1438.42 126.65C-1438.44 126.344 -1438.52 126.112 -1438.65 125.952C-1438.73 125.853 -1438.84 125.784 -1438.96 125.757C-1439.09 125.729 -1439.22 125.745 -1439.33 125.801C-1445.06 128.633 -1450.77 130.998 -1456.91 132.141C-1460.26 132.766 -1464.04 133.104 -1468.26 133.154C-1468.42 133.157 -1468.5 133.081 -1468.5 132.927L-1468.5 129.94C-1468.5 129.926 -1468.5 129.921 -1468.51 129.927C-1468.54 129.947 -1468.57 129.965 -1468.6 129.982C-1468.67 129.872 -1468.82 129.818 -1469.04 129.818C-1469.97 129.949 -1470.95 129.828 -1471.97 129.452C-1470.1 129.382 -1468.22 129.346 -1466.35 129.343C-1466.24 129.343 -1465.91 129.221 -1465.38 128.977C-1465.04 128.826 -1464.71 128.735 -1464.39 128.704C-1463.42 128.612 -1462.41 128.57 -1461.37 128.578C-1460.18 128.592 -1459.19 128.521 -1458.38 128.364C-1455.96 127.902 -1453.86 127.466 -1452.08 127.057C-1451.53 126.934 -1450.96 126.874 -1450.35 126.877C-1450.23 126.878 -1450.12 126.838 -1450.03 126.764C-1449.94 126.689 -1449.87 126.585 -1449.85 126.469C-1449.75 125.996 -1449.56 125.52 -1449.28 125.041C-1449.21 124.912 -1449.09 124.842 -1448.94 124.83C-1445.74 124.578 -1443.41 124.424 -1441.96 124.368C-1441.24 124.343 -1440.09 124.406 -1438.53 124.557C-1436.75 124.73 -1435.37 124.612 -1433.95 124.944C-1433.88 124.963 -1432.66 125.151 -1430.3 125.507C-1429.15 125.681 -1427.92 125.808 -1426.63 125.889C-1421.93 126.192 -1417.82 126.519 -1414.29 126.872C-1413.36 126.968 -1412.71 127.064 -1412.36 127.162C-1410.92 127.574 -1409.24 127.801 -1407.82 127.465C-1407.05 127.284 -1406.75 126.167 -1406.24 125.104C-1406.01 124.625 -1405.78 124.321 -1405.56 124.192C-1404.74 123.721 -1403.5 124.637 -1402.83 125.146C-1402.25 125.585 -1401.8 125.896 -1401.48 126.078C-1395.18 129.602 -1388.55 132.646 -1381.59 135.209C-1380.42 135.637 -1379.27 135.907 -1378.14 136.02C-1376.11 136.218 -1373.8 136.512 -1371.2 136.902C-1368.76 137.266 -1366.27 137.505 -1363.73 137.62C-1359.46 137.816 -1356.96 137.941 -1356.24 137.994C-1354.84 138.101 -1349.7 138.515 -1340.84 139.238C-1339 139.386 -1337.15 139.536 -1335.28 139.688C-1327.7 140.298 -1323.29 140.664 -1322.03 140.784C-1319.59 141.014 -1317.23 141.281 -1314.95 141.587C-1312.15 141.961 -1307.89 142.696 -1304.31 142.856C-1302.87 142.92 -1301.68 143 -1300.74 143.095C-1292.74 143.882 -1284.74 144.732 -1276.75 145.646C-1274.65 145.886 -1271.74 146.274 -1268.04 146.809C-1266.63 147.011 -1264.75 147.214 -1262.39 147.419C-1260.71 147.562 -1258.82 147.63 -1256.72 147.625C-1249.61 147.608 -1245.41 147.539 -1244.12 147.419C-1241.55 147.183 -1239.14 146.984 -1236.9 146.822C-1235.87 146.746 -1234.52 146.606 -1232.84 146.402C-1232.23 146.326 -1230.88 146.134 -1228.82 145.826C-1226.18 145.431 -1224.42 145.228 -1223.52 145.217C-1223.37 145.214 -1223.19 145.127 -1222.99 144.956C-1222.89 144.871 -1222.76 144.815 -1222.63 144.793C-1221.36 144.608 -1219.26 144.536 -1217.78 144.251C-1216.02 143.914 -1214.15 143.651 -1212.16 143.461C-1210.95 143.346 -1209.08 143.091 -1206.56 142.696C-1201.8 141.948 -1195.51 140.942 -1187.69 139.679C-1185.83 139.377 -1184.5 139.15 -1183.71 138.998C-1183.31 138.92 -1181.98 138.753 -1179.72 138.498C-1179.61 138.484 -1179.44 138.385 -1179.24 138.2C-1179.13 138.105 -1179.01 138.053 -1178.87 138.045C-1176.68 137.938 -1174.68 137.697 -1172.87 137.322C-1171.59 137.057 -1170.05 137.087 -1168.68 136.742C-1168.04 136.583 -1167.49 136.476 -1167.02 136.423C-1163.77 136.062 -1160.71 135.679 -1157.85 135.276C-1157.26 135.192 -1156.63 134.919 -1155.97 134.864C-1150.8 134.419 -1145.83 133.902 -1141.07 133.314C-1140.58 133.255 -1139.64 133.225 -1138.24 133.225C-1136.95 133.225 -1134.91 133.434 -1132.13 133.851C-1129.68 134.218 -1127.68 134.466 -1126.1 134.595C-1123.09 134.842 -1119.07 135.228 -1114.04 135.755C-1113.46 135.816 -1111.66 135.969 -1108.64 136.213C-1107.12 136.336 -1105.33 136.517 -1103.25 136.755C-1101.64 136.94 -1097.71 137.255 -1091.47 137.7C-1088.57 137.905 -1085.79 138.144 -1083.11 138.419C-1081.68 138.564 -1078 138.959 -1072.07 139.604C-1056.96 141.242 -1045.75 142.738 -1038.44 144.091C-1030.47 145.564 -1025.11 146.48 -1022.37 146.839C-1021.33 146.976 -1018.83 147.185 -1014.89 147.465C-1012.81 147.613 -1010.3 147.697 -1007.37 147.717C-998.175 147.776 -989.006 147.949 -979.866 148.238C-976.13 148.351 -972.882 148.742 -969.403 148.801C-966.165 148.857 -962.643 148.968 -958.836 149.133C-955.626 149.273 -952.826 149.353 -950.437 149.372C-937.247 149.49 -929.293 149.562 -926.576 149.587C-924.52 149.609 -922.403 149.738 -920.227 149.973C-916.975 150.326 -914.871 150.528 -913.916 150.578C-902.332 151.171 -895.126 151.23 -881.508 151.377C-881.354 151.379 -881.338 151.426 -881.458 151.515C-881.466 151.521 -881.548 151.569 -881.702 151.658C-881.789 151.709 -881.881 151.731 -881.979 151.725C-882.396 151.706 -882.776 151.741 -883.118 151.83C-883.213 151.856 -883.212 151.87 -883.114 151.872L-869.408 152.322C-869.312 152.325 -869.293 152.365 -869.349 152.444C-869.394 152.503 -869.471 152.542 -869.58 152.562C-869.765 152.598 -869.766 152.64 -869.584 152.688C-869.265 152.774 -868.682 152.783 -867.836 152.713C-867.027 152.643 -866.472 152.612 -866.172 152.62C-857.909 152.786 -847.881 152.944 -836.088 153.095C-836.054 153.095 -836.02 153.106 -835.992 153.127C-835.963 153.149 -835.943 153.179 -835.933 153.213C-835.88 153.398 -835.951 153.462 -836.147 153.406C-834.775 153.569 -833.72 153.662 -832.983 153.688C-823.395 153.996 -816.042 154.004 -810.924 153.713C-802.835 153.253 -797.305 153.017 -794.336 153.003C-782.205 152.941 -769.527 152.961 -756.303 153.062C-755.74 153.064 -755.179 153.064 -754.622 153.062C-747.532 153.014 -730.619 152.984 -703.882 152.973C-701.3 152.97 -698.5 152.984 -695.483 153.015C-670.021 153.276 -645.319 153.134 -621.378 152.591C-619.49 152.546 -615.712 152.574 -610.042 152.675C-608.098 152.709 -605.665 152.7 -602.744 152.65C-599.273 152.591 -596.842 152.587 -595.45 152.637C-595.438 152.637 -595.248 152.627 -594.878 152.608C-594.612 152.594 -594.294 152.65 -593.924 152.776C-593.839 152.805 -593.747 152.816 -593.657 152.807C-593.567 152.799 -593.483 152.772 -593.413 152.729C-593.342 152.685 -593.288 152.628 -593.256 152.561C-593.223 152.494 -593.213 152.42 -593.227 152.347C-593.252 152.21 -593.2 152.095 -593.071 152.003C-593.023 151.969 -592.984 151.924 -592.956 151.872C-592.928 151.82 -592.913 151.763 -592.912 151.704C-592.889 150.752 -593.224 150.189 -593.916 150.015C-595.048 149.732 -596.335 149.606 -597.777 149.637C-600.242 149.688 -601.515 149.713 -601.597 149.713C-606.964 149.676 -612.762 149.574 -618.992 149.406C-619.221 149.398 -619.332 149.28 -619.324 149.053L-619.303 148.368C-619.294 148.175 -619.196 148.067 -619.008 148.045C-618.462 147.977 -618.06 147.942 -617.803 147.94C-613.567 147.909 -606.191 147.791 -595.672 147.587C-592.605 147.525 -588.221 147.713 -582.521 148.15C-580.227 148.326 -577.452 148.629 -574.198 149.057C-566.805 150.029 -560.121 150.917 -554.143 151.721C-552.121 151.996 -550.052 152.211 -547.937 152.368C-544.853 152.601 -542.775 152.724 -541.702 152.738C-535.578 152.825 -531.132 152.87 -528.361 152.872C-485.546 152.931 -438.205 152.921 -386.336 152.843C-368.552 152.815 -352.303 152.477 -337.588 151.83C-334.476 151.693 -331.679 151.629 -329.198 151.637C-327.408 151.643 -324.606 151.591 -320.794 151.482C-318.382 151.412 -315.584 151.374 -312.399 151.368C-264.5 151.256 -236.347 151.164 -227.941 151.091C-221.922 151.038 -218.035 151.015 -216.282 151.024C-200.122 151.088 -171.655 151.12 -130.882 151.12C-122.927 151.12 -114.118 151.083 -104.454 151.007C-103.147 150.998 -101.895 150.599 -100.597 150.667C-95.7031 150.91 -90.5952 150.875 -85.2731 150.562C-83.9902 150.486 -82.5098 150.543 -80.8319 150.734C-79.0644 150.935 -77.605 151.042 -76.4538 151.053C-71.098 151.098 -67.0756 151.08 -64.3866 150.998C-60.0784 150.867 -55.8782 150.79 -51.7857 150.767C-50.4608 150.762 -47.6611 150.807 -43.3866 150.902C-37.3502 151.039 -31.7801 151.008 -26.6765 150.809C-19.3614 150.524 -14.5336 150.587 -5.44537 150.427C-2.47618 150.374 0.317913 150.193 2.93696 149.885C6.65405 149.448 9.56583 149.141 11.6723 148.965C13.8431 148.783 15.6204 148.709 17.0042 148.742C17.1414 148.745 17.2465 148.688 17.3193 148.57C17.7199 147.909 18.3767 147.351 19.2899 146.898C21.2843 145.909 22.8095 145.129 23.8656 144.557C24.2745 144.339 24.6176 144.048 24.8949 143.683C24.979 143.571 25.0168 143.445 25.0084 143.305C24.9552 142.569 24.8669 141.802 24.7436 141.007C24.6596 140.483 24.696 140.076 24.8529 139.784C24.9201 139.658 25.0224 139.57 25.1596 139.519C25.6134 139.357 26.147 139.297 26.7605 139.339C27.4916 139.389 28.0784 139.423 28.521 139.44C28.6327 139.443 28.744 139.423 28.8474 139.38C28.9507 139.337 29.0438 139.273 29.1204 139.192C29.1971 139.11 29.2556 139.013 29.292 138.908C29.3285 138.802 29.3421 138.69 29.3319 138.578C29.2101 137.234 29.1008 136.091 28.7394 134.797C28.2493 133.052 27.7479 131.073 27.2353 128.86C26.6387 126.284 25.2017 124.351 23.4075 122.553C22.7521 121.892 22.1359 121.267 21.5588 120.679C21.3603 120.477 21.23 120.218 21.1863 119.938C21.1426 119.657 21.1876 119.37 21.3151 119.116C21.9328 117.889 22.5588 116.86 22.6135 115.658C22.7269 113.162 22.4454 111.116 21.8866 108.49C21.6625 107.445 21.5056 106.251 21.4159 104.906C21.1582 101.038 20.9314 97.1666 20.7353 93.2926C21.7984 93.3556 22.2185 92.1245 22.3781 91.2296C22.7857 88.9355 22.9244 87.8052 23.5252 86.1329C24.8305 82.5083 25.7003 79.7744 26.1344 77.9313C27.112 73.8024 27.9874 70.6596 28.7605 68.5027C28.1162 71.0517 27.5224 73.6133 26.979 76.1876C26.4972 78.4593 25.9313 80.6049 25.2815 82.6245C24.5756 84.8122 23.8865 87.0055 23.2143 89.2044C23.0294 89.8122 22.8628 90.4775 22.7143 91.2002C22.5714 91.8836 22.4216 92.5685 22.2647 93.2548C22.2479 93.322 22.2745 93.3556 22.3445 93.3556H22.4916C22.5084 93.3556 22.5196 93.3472 22.5252 93.3304C23.0995 90.8935 23.6302 89.1764 24.1176 88.1792C25.1316 86.1119 25.9146 84.1343 26.4664 82.2464C26.7521 81.2744 27.028 79.8304 27.2941 77.9145C27.5966 75.738 27.8628 74.2884 28.0925 73.5657C29.1429 70.2548 29.7605 68.7338 30.2184 66.0573C30.3865 65.0797 30.6485 63.9453 31.0042 62.654C31.0126 62.6231 31.0266 62.6203 31.0462 62.6456C31.0714 62.6764 31.105 62.6946 31.147 62.7002C31.1778 62.703 31.1961 62.689 31.2017 62.6582C31.2213 62.5377 31.2549 62.4369 31.3025 62.3556C31.4398 62.1063 31.479 62.1301 31.4202 62.4271C30.5966 66.6063 29.7969 70.5139 29.021 74.1497C28.8278 75.0489 28.7142 76.217 28.5294 77.2464C28.5126 77.3388 28.5504 77.385 28.6428 77.385H28.7479C28.7815 77.385 28.8025 77.3682 28.8109 77.3346C29.5588 73.9845 30.0574 71.5741 30.3067 70.1035C30.7212 67.6526 31.2913 65.2632 32.0168 62.9355C32.5798 61.1315 33.4215 57.9649 34.542 53.4355C35.091 51.2114 35.5532 48.9775 35.9286 46.7338C36.077 46.2632 36.2255 45.794 36.374 45.3262C36.5084 44.8976 36.6093 44.4159 36.6765 43.8808C36.7969 42.9313 37.0056 41.9803 37.3025 41.0279C37.6891 39.7786 37.9426 38.8388 38.0631 38.2086C38.36 36.682 38.7451 35.0209 39.2185 33.2254C39.3474 32.7352 39.5378 32.2394 39.7899 31.738C40.0588 31.196 40.1975 30.3472 40.6513 29.8052C41.3515 28.9733 42.3096 28.4523 43.5252 28.2422ZM-1305.16 149.288C-1303.68 149.217 -1300.4 148.494 -1299.67 146.919C-1299.64 146.841 -1299.62 146.757 -1299.62 146.672C-1299.62 146.587 -1299.64 146.503 -1299.68 146.427C-1299.72 146.351 -1299.77 146.284 -1299.84 146.233C-1299.91 146.181 -1299.99 146.146 -1300.07 146.129C-1303.21 145.482 -1306.38 145.183 -1309.98 145.141C-1317.55 145.046 -1325.4 145.028 -1333.55 145.087C-1335.31 145.099 -1339.73 144.709 -1340.91 146.398C-1341.87 147.759 -1340.91 148.793 -1340.09 150.049C-1339.29 151.293 -1339.14 153.028 -1339.34 154.498C-1339.36 154.653 -1339.32 154.809 -1339.24 154.938C-1339.15 155.067 -1339.02 155.161 -1338.87 155.2C-1337.84 155.466 -1336.76 155.592 -1335.63 155.578C-1334.78 155.567 -1334.35 155.562 -1334.32 155.562C-1325.95 155.657 -1317.04 155.7 -1307.6 155.692C-1307.52 155.691 -1307.46 155.665 -1307.4 155.618C-1307.35 155.571 -1307.32 155.506 -1307.31 155.435C-1307.05 153.127 -1306.86 151.626 -1306.75 150.931C-1306.66 150.349 -1306.51 149.928 -1306.29 149.671C-1306.1 149.441 -1305.72 149.314 -1305.16 149.288ZM-1227.68 148.183L-1227.67 148.998C-1227.67 149.029 -1227.66 149.057 -1227.63 149.079C-1227.61 149.1 -1227.58 149.112 -1227.55 149.112H-1227.48C-1225.92 149.098 -1224.42 149.031 -1223.32 148.923C-1222.21 148.816 -1221.59 148.679 -1221.59 148.541C-1221.59 148.472 -1221.74 148.405 -1222.04 148.345C-1222.33 148.284 -1222.77 148.23 -1223.31 148.186C-1223.86 148.143 -1224.51 148.11 -1225.23 148.09C-1225.94 148.07 -1226.71 148.063 -1227.49 148.07H-1227.56C-1227.59 148.07 -1227.62 148.082 -1227.64 148.103C-1227.66 148.124 -1227.68 148.153 -1227.68 148.183Z" fill="black"/>
<path d="M43.5262 28.2428C42.3105 28.4529 41.3525 28.9739 40.6522 29.8058C40.1984 30.3479 40.0598 31.1966 39.7908 31.7386C39.5387 32.24 39.3483 32.7358 39.2195 33.226C38.7461 35.0215 38.3609 36.6826 38.064 38.2092C37.9436 38.8395 37.69 39.7792 37.3035 41.0285C37.0066 41.9809 36.7979 42.9319 36.6774 43.8815C36.6102 44.4165 36.5094 44.8983 36.3749 45.3268C36.2265 45.7946 36.078 46.2638 35.9295 46.7344L36.1984 45.3479C36.2068 45.3086 36.1914 45.2792 36.1522 45.2596H36.148C36.1116 45.24 36.0822 45.2554 36.0598 45.3058C35.1634 47.5551 34.5205 49.7904 34.1312 52.0117C34.0584 52.4207 34.029 52.4179 34.043 52.0033L34.0891 50.7932L34.085 50.789C33.3119 53.8983 32.9295 55.642 31.9548 58.1924C30.9632 60.789 30.1536 63.5019 29.5262 66.331C29.4113 66.8521 29.1564 67.5761 28.7614 68.5033C27.9883 70.6602 27.113 73.803 26.1354 77.9319C25.7012 79.775 24.8315 82.5089 23.5262 86.1336C22.9253 87.8058 22.7867 88.9361 22.3791 91.2302C22.2194 92.1252 21.7993 93.3563 20.7363 93.2932C20.6242 92.1 20.3091 90.1182 19.7909 87.3479C19.6705 86.7064 19.3932 84.5411 18.959 80.8521C18.8791 80.163 18.253 79.5537 17.8244 79.1966C17.4183 78.8605 17.19 78.4893 17.1396 78.0831C17.0836 77.6322 17.1564 77.2456 17.3581 76.9235C18.4309 75.24 19.0206 74.2498 19.127 73.9529C20.113 71.205 21.3497 68.1784 22.8371 64.8731C24.4478 61.2932 25.5779 57.3268 26.2278 52.9739C26.4799 51.3044 26.7867 49.7582 27.1481 48.3352C27.6382 46.4193 28.0261 43.9823 28.3118 41.0243C28.3342 40.7666 28.2418 40.5607 28.0345 40.4067C27.0009 39.642 25.9295 38.6448 24.8203 37.4151C24.6662 37.2442 24.557 37.0579 24.4926 36.8563C24.4281 36.6602 24.3875 36.4473 24.3707 36.2176C24.2755 34.9039 24.2264 34.2288 24.2236 34.1924C24.2162 34.0678 24.1737 33.9477 24.1009 33.8459C24.0281 33.7441 23.9279 33.6647 23.8118 33.6168C23.1522 33.3395 22.6354 33.2092 22.1143 32.642C20.7558 31.1686 19.6228 29.5327 18.7152 27.7344C18.4547 27.219 18.1536 26.3086 17.8118 25.0033C17.4813 23.7316 16.9842 22.6014 16.3203 21.6126C16.3651 21.5901 16.4954 21.6042 16.711 21.6546C16.8455 21.6854 16.9085 21.6322 16.9001 21.4949C16.7544 18.8282 16.7264 16.1644 16.8161 13.5033C16.8665 11.9823 17.12 10.4851 17.5766 9.01172C18.3861 9.31424 19.1984 9.61956 20.0135 9.92768C20.8202 10.233 21.6466 10.4963 22.4926 10.7176C26.3973 11.74 28.4491 12.282 28.648 12.3437C31.1984 13.121 33.606 14.5411 35.2321 16.6294C36.4926 18.2512 36.3791 20.0033 35.6858 21.81C35.6451 21.9156 35.6265 22.0285 35.6311 22.1416C35.6357 22.2548 35.6634 22.3659 35.7126 22.4682C35.7617 22.5705 35.8313 22.6617 35.917 22.7364C36.0027 22.8111 36.1027 22.8676 36.211 22.9025C37.1564 23.2092 38.2278 22.0747 38.7699 21.9571C39.4729 21.8058 40.0934 21.9529 40.6312 22.3983C41.3034 22.9557 41.788 23.649 42.0849 24.4781C42.5303 25.7134 43.0108 26.9683 43.5262 28.2428Z" fill="#800C38"/>
<path d="M52.7435 42.3281C53.0516 42.9976 53.2267 43.6909 53.2687 44.408C53.2351 44.4752 53.221 44.5452 53.2266 44.618C53.2294 44.632 53.2266 44.6489 53.2182 44.6685C53.2182 44.6741 53.2182 44.6783 53.2182 44.6811C53.2154 44.6895 53.214 44.6909 53.214 44.6853C53.158 44.3043 53.039 43.9486 52.8569 43.618C52.6006 43.1433 52.6216 42.8071 52.7435 42.3281Z" fill="#800C38"/>
<path d="M53.3106 45.6211L52.0039 49.4488C52.0207 48.3452 52.4562 47.0693 53.3106 45.6211Z" fill="#800C38"/>
<path d="M35.9285 46.733C35.5532 48.9767 35.091 51.2106 34.5419 53.4347C33.4215 57.9641 32.5798 61.1308 32.0167 62.9347C31.2912 65.2624 30.7212 67.6518 30.3066 70.1028C30.0573 71.5734 29.5588 73.9837 28.8109 77.3339C28.8025 77.3675 28.7814 77.3843 28.7478 77.3843H28.6428C28.5503 77.3843 28.5125 77.3381 28.5293 77.2456C28.7142 76.2162 28.8277 75.0481 29.021 74.149C29.7969 70.5131 30.5966 66.6056 31.4201 62.4263C31.479 62.1294 31.4397 62.1056 31.3025 62.3549C31.2548 62.4361 31.2212 62.5369 31.2016 62.6574C31.196 62.6882 31.1778 62.7022 31.147 62.6994C31.1049 62.6938 31.0713 62.6756 31.0461 62.6448C31.0265 62.6196 31.0126 62.6224 31.0042 62.6532C30.6484 63.9445 30.3865 65.079 30.2184 66.0566C29.7604 68.733 29.1428 70.254 28.0924 73.565C27.8627 74.2876 27.5966 75.7372 27.294 77.9137C27.0279 79.8297 26.752 81.2736 26.4663 82.2456C25.9145 84.1336 25.1316 86.1112 24.1176 88.1784C23.6302 89.1756 23.0994 90.8927 22.5252 93.3297C22.5196 93.3465 22.5084 93.3549 22.4916 93.3549H22.3445C22.2744 93.3549 22.2478 93.3213 22.2646 93.254C22.4215 92.5678 22.5714 91.8829 22.7143 91.1994C22.8627 90.4767 23.0294 89.8115 23.2142 89.2036C23.8865 87.0047 24.5755 84.8115 25.2814 82.6238C25.9313 80.6042 26.4971 78.4585 26.9789 76.1868C27.5223 73.6126 28.1162 71.0509 28.7604 68.5019C29.1554 67.5748 29.4103 66.8507 29.5252 66.3297C30.1526 63.5005 30.9622 60.7876 31.9537 58.191C32.9285 55.6406 33.3109 53.8969 34.084 50.7876L34.0881 50.7918L34.042 52.0019C34.028 52.4165 34.0574 52.4193 34.1302 52.0103C34.5195 49.789 35.1624 47.5538 36.0588 45.3045C36.0812 45.254 36.1106 45.2386 36.147 45.2582H36.1512C36.1904 45.2778 36.2058 45.3073 36.1974 45.3465L35.9285 46.733Z" fill="#360700"/>
<path d="M54.2323 63.961C53.5684 65.1011 53.2491 66.0871 53.2743 66.919C53.3961 71.0325 53.6398 74.835 52.3499 78.772C51.5908 81.0857 51.0922 82.4919 50.8541 82.9905C50.5376 83.6515 50.0194 84.1249 49.2995 84.4106C48.5684 84.6991 48.1762 84.8588 48.123 84.8896C47.1314 85.4232 46.5179 85.9526 46.5935 87.1627C46.4899 86.919 46.4325 86.6767 46.4213 86.4358C46.4101 86.2062 46.4759 85.9793 46.6188 85.7552C46.8232 85.4414 46.9549 85.1753 47.0137 84.9568C47.0501 84.8252 47.0151 84.7146 46.9087 84.6249C44.4185 82.5549 43.0865 80.0017 42.9129 76.9653C42.8344 75.5731 42.9325 73.8308 43.2071 71.7384C43.6216 68.6011 44.7546 65.8448 46.6061 63.4695C46.6958 63.3546 46.8135 63.3028 46.9591 63.314C48.228 63.4148 49.5823 63.6585 51.0221 64.0451C51.7336 64.2356 52.8037 64.2075 54.2323 63.961Z" fill="#360700"/>
<path d="M49.904 121.03C50.7555 122.053 51.2961 122.988 51.5258 123.837C51.6462 124.279 51.4838 124.771 51.0384 125.312C50.3914 126.096 49.7583 126.894 49.1393 127.707C48.3381 128.757 47.9306 129.924 47.9166 131.207C47.883 134.48 47.862 137.938 48.6729 141.039C49.0763 142.579 49.4502 144.125 49.7947 145.677L49.4208 149.585C49.4093 149.714 49.3495 149.835 49.2531 149.922C49.1567 150.01 49.0306 150.059 48.8997 150.06H41.8914C41.8045 150.06 41.7625 150.015 41.7653 149.925C41.8297 148.387 41.8647 146.976 41.8703 145.69C41.8843 143.244 41.8885 141.988 41.8829 141.921C41.7905 140.579 41.4586 139.348 40.8872 138.228C39.9768 136.286 39.2261 134.369 38.635 132.476C38.4838 131.988 38.2878 131.519 38.0469 131.068C37.8144 130.631 37.5832 130.179 37.3535 129.711C39.2527 126.337 41.8662 120.715 46.3536 120.484C47.2808 120.436 48.4642 120.618 49.904 121.03Z" fill="#360700"/>
</g>
<defs>
<clipPath id="clip0_1182_16364">
<rect width="61.7647" height="150" fill="white"/>
</clipPath>
</defs>
</svg>
