<svg width="4000" height="145" viewBox="0 0 4000 145" fill="none" xmlns="http://www.w3.org/2000/svg">
<g clip-path="url(#clip0_1182_16439)">
<mask id="mask0_1182_16439" style="mask-type:luminance" maskUnits="userSpaceOnUse" x="0" y="0" width="4383" height="145">
<path d="M4383 0H0V145H4383V0Z" fill="white"/>
</mask>
<g mask="url(#mask0_1182_16439)">
<path d="M0 91.5508L126.363 91.8508" stroke="#40061C" stroke-width="2"/>
<path d="M126.362 91.8498C153.296 91.7765 180.22 91.7498 207.136 91.7698C217.722 91.7764 235.782 91.7898 261.32 91.8098C272.293 91.8231 299.54 91.5565 343.06 91.0098C344.497 90.9965 348.423 91.0165 354.838 91.0698C359.507 91.0998 367.793 91.6198 369.799 89.5798C369.928 89.4544 370.022 89.3076 370.075 89.1491C370.128 88.9905 370.141 88.8238 370.109 88.6598C369.795 86.9798 369.365 85.7798 368.82 85.0598C361.092 74.8998 350.025 68.4931 335.617 65.8398C327.352 64.3131 319.959 63.4764 313.435 63.3298C285.991 62.7198 274.237 62.5898 260.242 61.6398C255.603 61.3331 251.095 60.9465 246.718 60.4798C224.186 58.0931 208.466 56.4798 199.557 55.6398C199.144 55.5998 198.822 55.7165 198.591 55.9898C195.755 59.3298 193.414 63.6498 185.772 63.9498C157.048 65.0765 130.789 64.9065 106.993 63.4398C103.839 63.2465 102.278 61.8198 102.311 59.1598C102.526 42.5065 102.621 32.6464 102.596 29.5798C102.58 27.1198 102.464 24.7365 102.249 22.4298C102.183 21.7031 101.96 21.1498 101.581 20.7698C101.344 20.5342 101.016 20.3704 100.649 20.305C100.283 20.2396 99.8992 20.2765 99.562 20.4098C82.669 27.1498 65.838 32.7798 47.7561 35.4998C37.873 36.9865 26.7183 37.7898 14.2922 37.9098C13.8216 37.9165 13.5863 37.7365 13.5863 37.3698L13.5987 30.2598C13.5987 30.2265 13.5863 30.2165 13.5615 30.2298C13.4706 30.2765 13.3798 30.3198 13.2891 30.3598" stroke="#000909" stroke-width="2"/>
<path d="M13.2881 30.3587C13.0733 30.0987 12.6441 29.9688 12 29.9688" stroke="#40061C" stroke-width="2"/>
<path d="M12.0008 29.9677C9.24307 30.281 6.35739 29.991 3.34375 29.0977" stroke="#000909" stroke-width="2"/>
<path d="M495.049 76.3106C499.409 76.1406 509.081 74.4207 511.224 70.6707C511.33 70.4869 511.384 70.286 511.38 70.0832C511.375 69.8804 511.314 69.681 511.202 69.4999C511.088 69.3189 510.925 69.1611 510.726 69.0382C510.525 68.9153 510.294 68.8307 510.047 68.7907C500.796 67.2507 491.445 66.5407 480.831 66.4407C458.539 66.214 435.388 66.1706 411.377 66.3106C406.176 66.3406 393.159 65.4106 389.667 69.4306C386.855 72.6706 389.679 75.1306 392.082 78.1206C394.435 81.0806 394.893 85.2106 394.298 88.7106C394.238 89.0777 394.346 89.4498 394.602 89.7573C394.857 90.0648 395.242 90.2864 395.686 90.3807C398.707 91.014 401.89 91.314 405.234 91.2807C407.729 91.254 409.012 91.2406 409.086 91.2406C433.765 91.4673 460.025 91.5706 487.866 91.5506C488.078 91.5496 488.282 91.487 488.439 91.3747C488.597 91.2623 488.697 91.1079 488.721 90.9407C489.488 85.4473 490.033 81.874 490.355 80.2207C490.62 78.834 491.074 77.834 491.718 77.2207C492.28 76.674 493.39 76.3706 495.049 76.3106Z" stroke="#000909" stroke-width="2"/>
<path d="M723.438 73.6784L723.462 75.6184C723.462 75.69 723.497 75.7586 723.56 75.8093C723.623 75.8599 723.708 75.8884 723.797 75.8884H724.02C728.622 75.856 733.036 75.6946 736.29 75.4396C739.546 75.1846 741.378 74.8569 741.383 74.5284C741.386 74.3653 740.939 74.2069 740.065 74.0624C739.192 73.9178 737.912 73.7898 736.297 73.6858C734.682 73.5817 732.763 73.5037 730.653 73.4561C728.541 73.4085 726.28 73.3923 723.995 73.4084H723.772C723.683 73.4084 723.599 73.4368 723.535 73.4874C723.472 73.5381 723.438 73.6068 723.438 73.6784Z" stroke="#40061C" stroke-width="2"/>
<path d="M126.363 91.8483L127.353 91.5683C127.849 91.4216 127.898 91.2083 127.502 90.9283C127.263 90.7483 126.941 90.655 126.536 90.6483C99.5742 90.0683 72.9344 89.8483 46.1336 90.1583C30.7433 90.3316 15.3655 90.1916 0 89.7383" stroke="#400F25" stroke-width="2"/>
<path d="M12.0018 29.9688L10.3918 55.4688C10.3505 56.1021 10.722 56.4287 11.5064 56.4487L12.138 56.4688C12.9389 56.4886 13.3393 56.1754 13.3393 55.5287L13.2898 30.3587" stroke="#400F25" stroke-width="2"/>
<path d="M4470.43 -211.781C4471.8 -209.975 4473.25 -208.161 4474.75 -206.341C4476.02 -204.775 4477.62 -203.048 4479.54 -201.161C4484.06 -196.701 4487.58 -192.971 4490.09 -189.971C4492.63 -186.931 4495.13 -183.028 4497.6 -178.261C4497.24 -177.121 4497.18 -176.321 4497.93 -175.191C4498.46 -174.405 4498.82 -173.558 4498.98 -172.651C4498.98 -172.638 4498.98 -172.641 4499 -172.661C4499 -172.668 4499 -172.678 4499 -172.691C4499.02 -172.738 4499.03 -172.778 4499.02 -172.811C4499.01 -172.985 4499.05 -173.151 4499.15 -173.311C4499.41 -172.205 4499.45 -171.241 4499.27 -170.421C4496.76 -166.975 4495.47 -163.938 4495.42 -161.311C4496.05 -158.825 4496.78 -156.815 4497.6 -155.281C4499.07 -152.511 4501.44 -149.671 4502.71 -146.431C4503.31 -144.945 4504.45 -142.835 4506.13 -140.101C4508.09 -136.951 4509.07 -134.191 4506.3 -131.461C4504.15 -129.341 4502.71 -127.778 4501.98 -126.771C4497.77 -126.185 4494.61 -126.118 4492.52 -126.571C4488.27 -127.491 4484.28 -128.071 4480.54 -128.311C4480.11 -128.338 4479.76 -128.215 4479.5 -127.941C4474.04 -122.288 4470.71 -115.728 4469.48 -108.261C4468.68 -103.281 4468.38 -99.1348 4468.62 -95.8215C4469.12 -88.5948 4473.05 -82.5181 4480.39 -77.5914C4480.7 -77.3781 4480.82 -77.1148 4480.7 -76.8015C4480.53 -76.2815 4480.15 -75.6481 4479.54 -74.9014C4479.12 -74.3681 4478.92 -73.8281 4478.96 -73.2814C4479 -72.7081 4479.16 -72.1315 4479.47 -71.5515C4479.3 -66.7648 4479.09 -63.6848 4478.86 -62.3114C4478.21 -58.6048 4476.56 -55.0248 4473.89 -51.5715C4473.66 -51.2715 4473.41 -50.4914 4473.15 -49.2314C4472.67 -46.9314 4473.45 -45.2515 4475.5 -44.1915C4476.08 -43.8915 4477.45 -43.6881 4479.58 -43.5815C4482.41 -43.4415 4484 -41.9448 4484.31 -39.0914C4484.79 -34.7781 4484.31 -28.5715 4482.85 -20.4715C4482.59 -18.9915 4481.88 -17.2015 4480.74 -15.1015C4478.76 -11.4315 4478.3 -6.8715 4478.78 -3.1315C4478.93 -2.0115 4479.96 -0.544842 4481.87 1.26849C4484.47 3.74849 4486.92 6.34516 4489.22 9.0585C4484.98 8.0785 4481.5 7.64518 4478.76 7.75851C4465.53 8.30851 4457.83 21.6886 4452.23 29.7186C4450.25 32.0185 4449.26 33.8652 4449.25 35.2586C4449.21 38.1919 4449.15 41.2751 4449.05 44.5085C4448.89 49.9951 4450.21 55.1452 4453.04 59.9585C4453.2 60.2209 4453.43 60.4431 4453.74 60.5998C4454.04 60.7564 4454.4 60.8412 4454.76 60.8443C4455.12 60.8474 4455.46 60.7688 4455.77 60.6175C4456.07 60.4661 4456.32 60.2482 4456.48 59.9885L4462.65 49.9885C4464.33 52.6552 4465.31 55.5851 4465.58 58.7784C4465.59 58.9384 4465.58 61.9285 4465.55 67.7485C4465.53 70.8085 4465.42 74.1685 4465.24 77.8285C4465.22 78.0419 4465.35 78.1484 4465.61 78.1484H4486.27C4486.65 78.1474 4487.02 78.031 4487.31 77.822C4487.59 77.613 4487.76 77.3264 4487.8 77.0185L4488.9 67.7186L4493.84 77.3384C4494.13 77.9051 4494.65 78.2384 4495.41 78.3384C4515.64 81.0484 4535.59 79.5085 4555.77 79.8785C4576.58 80.2585 4596.63 79.4285 4614.96 79.2385C4623.11 79.1585 4631.37 78.9785 4639.73 78.6985C4650.51 78.3385 4668.46 77.9818 4693.56 77.6285C4694.52 77.6151 4696.88 77.5785 4700.68 77.5185C4718.16 77.2452 4770.7 77.1151 4858.27 77.1285C4865.18 77.1285 4873.44 77.0951 4883.04 77.0284C4906.67 76.8551 4930.3 76.8751 4953.94 77.0884V144.999H0V91.5485L126.363 91.8486C153.296 91.7752 180.221 91.7485 207.137 91.7685C217.722 91.7752 235.783 91.7885 261.32 91.8085C272.293 91.8219 299.54 91.5551 343.06 91.0085C344.497 90.9951 348.423 91.0151 354.839 91.0685C359.508 91.0985 367.793 91.6185 369.799 89.5785C369.928 89.4532 370.022 89.3064 370.076 89.1478C370.129 88.9893 370.14 88.8225 370.109 88.6586C369.796 86.9786 369.366 85.7785 368.821 85.0585C361.093 74.8985 350.024 68.4918 335.617 65.8384C327.353 64.3118 319.959 63.4752 313.436 63.3285C285.991 62.7185 274.238 62.5885 260.243 61.6385C255.602 61.3318 251.094 60.9451 246.719 60.4785C224.187 58.0918 208.466 56.4785 199.557 55.6385C199.145 55.5985 198.823 55.7152 198.591 55.9885C195.755 59.3285 193.414 63.6485 185.773 63.9485C157.049 65.0751 130.788 64.9052 106.993 63.4386C103.839 63.2452 102.278 61.8186 102.311 59.1586C102.526 42.5052 102.621 32.6452 102.596 29.5785C102.58 27.1185 102.464 24.7352 102.249 22.4285C102.183 21.7019 101.96 21.1485 101.581 20.7685C101.344 20.533 101.016 20.369 100.649 20.3036C100.282 20.2382 99.8991 20.2753 99.5619 20.4086C82.6689 27.1486 65.8379 32.7785 47.756 35.4985C37.8729 36.9852 26.7182 37.7886 14.2921 37.9086C13.8215 37.9152 13.5862 37.7352 13.5862 37.3685L13.5986 30.2586C13.5986 30.2252 13.5862 30.2152 13.5614 30.2286C13.4706 30.2752 13.3797 30.3185 13.2889 30.3585C13.0743 30.0985 12.6449 29.9686 12.0009 29.9686C9.24323 30.2819 6.35755 29.9919 3.34391 29.0986C8.87582 28.9319 14.4036 28.8452 19.9272 28.8385C20.2575 28.8385 21.2112 28.5485 22.7881 27.9686C23.7789 27.6085 24.749 27.3919 25.6986 27.3186C28.5554 27.0986 31.5278 26.9985 34.6157 27.0185C38.1082 27.0519 41.0393 26.8819 43.4089 26.5086C50.5426 25.4086 56.735 24.3719 61.9862 23.3985C63.5962 23.1052 65.293 22.9619 67.0764 22.9686C67.4253 22.9718 67.7645 22.8767 68.0358 22.6996C68.3071 22.5226 68.4934 22.2746 68.5626 21.9985C68.8433 20.8719 69.4006 19.7386 70.2345 18.5986C70.4574 18.2919 70.7918 18.1252 71.2377 18.0986C80.6749 17.4986 87.5362 17.1319 91.8213 16.9985C93.9432 16.9385 97.3161 17.0885 101.94 17.4485C107.166 17.8585 111.253 17.5785 115.414 18.3685C115.637 18.4152 119.225 18.8619 126.177 19.7085C129.586 20.1219 133.199 20.4252 137.014 20.6185C150.86 21.3385 162.985 22.1185 173.388 22.9585C176.129 23.1852 178.02 23.4152 179.06 23.6485C183.321 24.6285 188.25 25.1685 192.448 24.3685C194.715 23.9385 195.594 21.2785 197.105 18.7485C197.782 17.6085 198.451 16.8852 199.111 16.5785C201.526 15.4585 205.18 17.6386 207.149 18.8486C208.858 19.8952 210.187 20.6352 211.137 21.0686C229.706 29.4552 249.245 36.6985 269.755 42.7985C273.198 43.8185 276.587 44.4618 279.922 44.7285C285.901 45.2018 292.72 45.9019 300.382 46.8285C307.565 47.6952 314.91 48.2651 322.415 48.5385C335.007 49.0051 342.358 49.3019 344.472 49.4285C348.618 49.6819 363.756 50.6685 389.888 52.3885C395.296 52.7418 400.753 53.0985 406.26 53.4585C428.594 54.9119 441.61 55.7818 445.31 56.0685C452.509 56.6151 459.469 57.2518 466.191 57.9785C474.451 58.8685 487.01 60.6184 497.562 60.9984C501.788 61.1518 505.298 61.3418 508.089 61.5685C531.669 63.4418 555.234 65.4651 578.781 67.6385C584.983 68.2118 593.544 69.1352 604.468 70.4086C608.613 70.8886 614.161 71.3719 621.113 71.8585C626.058 72.1985 631.628 72.3619 637.82 72.3486C658.791 72.3086 671.176 72.1452 674.975 71.8585C682.554 71.2985 689.651 70.8251 696.264 70.4385C699.286 70.2585 703.265 69.9251 708.203 69.4385C710.027 69.2585 713.983 68.8018 720.068 68.0685C727.837 67.1285 733.047 66.6452 735.698 66.6185C736.143 66.6119 736.664 66.4052 737.258 65.9985C737.558 65.7955 737.922 65.6608 738.311 65.6085C742.063 65.1685 748.231 64.9985 752.615 64.3185C757.783 63.5185 763.303 62.8919 769.174 62.4386C772.749 62.1652 778.248 61.5585 785.67 60.6185C799.715 58.8385 818.255 56.4452 841.291 53.4386C846.781 52.7186 850.695 52.1785 853.032 51.8185C854.212 51.6318 858.131 51.2351 864.785 50.6285C865.132 50.5951 865.611 50.3585 866.222 49.9185C866.527 49.6918 866.89 49.5685 867.311 49.5485C873.743 49.2952 879.634 48.7219 884.985 47.8285C888.75 47.1985 893.295 47.2685 897.345 46.4485C899.211 46.0685 900.841 45.8152 902.237 45.6886C911.814 44.8286 920.818 43.9185 929.248 42.9585C930.994 42.7585 932.864 42.1086 934.796 41.9786C950.039 40.9186 964.677 39.6886 978.713 38.2886C980.15 38.1486 982.936 38.0785 987.073 38.0785C990.863 38.0785 996.861 38.5752 1005.07 39.5686C1012.28 40.4419 1018.2 41.0319 1022.84 41.3385C1031.72 41.9252 1043.57 42.8452 1058.38 44.0986C1060.1 44.2452 1065.41 44.6086 1074.3 45.1886C1078.78 45.4819 1084.08 45.9118 1090.19 46.4785C1094.95 46.9185 1106.53 47.6685 1124.92 48.7285C1133.45 49.2151 1141.67 49.7852 1149.57 50.4386C1153.77 50.7852 1164.61 51.7251 1182.11 53.2585C1226.63 57.1585 1259.68 60.7186 1281.24 63.9386C1304.73 67.4452 1320.52 69.6251 1328.59 70.4785C1331.67 70.8051 1339.03 71.3019 1350.66 71.9686C1356.79 72.3219 1364.17 72.5218 1372.8 72.5685C1399.91 72.7085 1426.95 73.1219 1453.88 73.8085C1464.89 74.0785 1474.47 75.0084 1484.72 75.1484C1494.27 75.2818 1504.65 75.5451 1515.87 75.9385C1525.33 76.2718 1533.58 76.4618 1540.63 76.5085C1579.5 76.7885 1602.95 76.9585 1610.96 77.0185C1617.02 77.0719 1623.26 77.3785 1629.67 77.9385C1639.26 78.7785 1645.46 79.2585 1648.28 79.3785C1682.42 80.7885 1703.66 80.9284 1743.8 81.2784C1744.26 81.2851 1744.31 81.3952 1743.95 81.6085C1743.92 81.6219 1743.69 81.7351 1743.23 81.9485C1742.97 82.0685 1742.7 82.1219 1742.41 82.1085C1741.19 82.0619 1740.06 82.1452 1739.06 82.3585C1738.77 82.4185 1738.78 82.4519 1739.07 82.4585L1779.47 83.5284C1779.75 83.5351 1779.8 83.6318 1779.64 83.8185C1779.51 83.9585 1779.28 84.0519 1778.96 84.0986C1778.42 84.1852 1778.42 84.2851 1778.95 84.3984C1779.89 84.6051 1781.61 84.6252 1784.1 84.4585C1786.49 84.2919 1788.13 84.2185 1789 84.2385C1813.37 84.6319 1842.92 85.0085 1877.68 85.3685C1877.78 85.3678 1877.88 85.3948 1877.97 85.4453C1878.05 85.4958 1878.11 85.5671 1878.14 85.6484C1878.3 86.0884 1878.09 86.2419 1877.51 86.1085C1881.56 86.4952 1884.67 86.7184 1886.83 86.7784C1915.09 87.5118 1936.77 87.5318 1951.85 86.8384C1975.69 85.7451 1991.99 85.1818 2000.75 85.1484C2036.5 85.0018 2073.88 85.0486 2112.86 85.2886C2114.52 85.2952 2116.16 85.2952 2117.81 85.2886C2138.7 85.1752 2188.56 85.1052 2267.37 85.0785C2274.99 85.0719 2283.23 85.1052 2292.13 85.1785C2367.18 85.7985 2439.99 85.4618 2510.56 84.1685C2516.12 84.0618 2527.27 84.1285 2543.97 84.3685C2549.71 84.4485 2556.88 84.4285 2565.49 84.3085C2575.72 84.1685 2582.89 84.1584 2586.99 84.2784C2587.02 84.2784 2587.58 84.2552 2588.67 84.2085C2589.45 84.1752 2590.39 84.3085 2591.48 84.6085C2591.73 84.6774 2592 84.7032 2592.27 84.6836C2592.53 84.6639 2592.78 84.5995 2592.99 84.4965C2593.2 84.3936 2593.35 84.2557 2593.45 84.0965C2593.55 83.9373 2593.57 83.7621 2593.54 83.5884C2593.46 83.2618 2593.61 82.9885 2594 82.7685C2594.13 82.6875 2594.26 82.5809 2594.33 82.4576C2594.42 82.3343 2594.47 82.1977 2594.47 82.0585C2594.53 79.7919 2593.55 78.4519 2591.51 78.0386C2588.17 77.3652 2584.37 77.0651 2580.12 77.1385C2572.85 77.2585 2569.1 77.3185 2568.87 77.3185C2553.05 77.2318 2535.96 76.9884 2517.59 76.5884C2516.91 76.5684 2516.59 76.2885 2516.62 75.7485L2516.68 74.1185C2516.7 73.6585 2516.99 73.4019 2517.54 73.3486C2519.15 73.1886 2520.34 73.1052 2521.1 73.0986C2533.58 73.0252 2555.33 72.7451 2586.33 72.2585C2595.37 72.1118 2608.29 72.5586 2625.09 73.5986C2631.86 74.0186 2640.03 74.7385 2649.63 75.7585C2671.41 78.0718 2691.12 80.1852 2708.74 82.0986C2714.7 82.7519 2720.8 83.2651 2727.03 83.6385C2736.12 84.1918 2742.25 84.4852 2745.41 84.5185C2763.46 84.7252 2776.57 84.8318 2784.73 84.8384C2910.94 84.9784 3050.48 84.9552 3203.37 84.7685C3255.79 84.7019 3303.68 83.8985 3347.06 82.3585C3356.23 82.0319 3364.47 81.8784 3371.79 81.8984C3377.07 81.9118 3385.33 81.7884 3396.56 81.5284C3403.67 81.3618 3411.92 81.2718 3421.3 81.2585C3562.49 80.9918 3645.47 80.7719 3670.25 80.5986C3688 80.4719 3699.46 80.4185 3704.62 80.4385C3752.25 80.5918 3836.16 80.6685 3956.34 80.6685C3979.79 80.6685 4005.76 80.5784 4034.24 80.3984C4038.09 80.3784 4041.79 79.4284 4045.61 79.5884C4060.04 80.1684 4075.09 80.0851 4090.78 79.3384C4094.56 79.1584 4098.93 79.2952 4103.87 79.7485C4109.08 80.2285 4113.38 80.4818 4116.78 80.5085C4132.57 80.6151 4144.42 80.5718 4152.34 80.3785C4165.04 80.0651 4177.42 79.8819 4189.49 79.8285C4193.39 79.8152 4201.65 79.9218 4214.24 80.1484C4232.04 80.4751 4248.45 80.4019 4263.5 79.9285C4285.06 79.2485 4299.29 79.3985 4326.08 79.0185C4334.84 78.8919 4343.07 78.4618 4350.79 77.7285C4361.75 76.6885 4370.33 75.9586 4376.54 75.5386C4382.94 75.1052 4388.18 74.9285 4392.25 75.0085C4392.66 75.0151 4392.97 74.8786 4393.18 74.5986C4394.36 73.0252 4396.3 71.6985 4398.99 70.6185C4404.87 68.2652 4409.37 66.4085 4412.48 65.0485C4413.68 64.5285 4414.69 63.8352 4415.51 62.9686C4415.76 62.7019 4415.87 62.4018 4415.84 62.0685C4415.68 60.3151 4415.42 58.4919 4415.06 56.5986C4414.82 55.3519 4414.93 54.3819 4415.39 53.6886C4415.58 53.3886 4415.88 53.1785 4416.29 53.0585C4417.63 52.6719 4419.2 52.5285 4421.01 52.6285C4423.16 52.7485 4424.9 52.8285 4426.2 52.8685C4426.53 52.8767 4426.85 52.8282 4427.16 52.7264C4427.46 52.6247 4427.73 52.4718 4427.97 52.278C4428.19 52.0842 4428.37 51.854 4428.48 51.6024C4428.58 51.3508 4428.61 51.0835 4428.59 50.8185C4428.23 47.6185 4427.91 44.8986 4426.84 41.8186C4425.39 37.6652 4423.92 32.9552 4422.41 27.6886C4420.65 21.5586 4416.41 16.9585 4411.13 12.6785C4409.19 11.1052 4407.37 9.61851 4405.68 8.21851C4405.09 7.73771 4404.71 7.12053 4404.57 6.45343C4404.45 5.78634 4404.59 5.10274 4404.96 4.4985C4406.78 1.5785 4408.62 -0.871508 4408.79 -3.73151C4409.12 -9.67151 4408.29 -14.5415 4406.64 -20.7915C4405.99 -23.2781 4405.52 -26.1215 4405.26 -29.3215C4404.5 -38.5281 4403.83 -47.7415 4403.25 -56.9615C4406.38 -56.8115 4407.62 -59.7414 4408.09 -61.8714C4409.29 -67.3314 4409.7 -70.0215 4411.47 -74.0015C4415.32 -82.6281 4417.89 -89.1348 4419.16 -93.5215C4422.05 -103.348 4424.63 -110.828 4426.9 -115.961C4425.01 -109.895 4423.25 -103.798 4421.65 -97.6714C4420.23 -92.2648 4418.57 -87.1581 4416.65 -82.3515C4414.57 -77.1448 4412.54 -71.9248 4410.56 -66.6915C4410.01 -65.2448 4409.52 -63.6615 4409.08 -61.9415C4408.66 -60.3148 4408.22 -58.6848 4407.76 -57.0515C4407.71 -56.8915 4407.78 -56.8114 4407.99 -56.8114H4408.43C4408.48 -56.8114 4408.51 -56.8314 4408.53 -56.8714C4410.22 -62.6714 4411.78 -66.7581 4413.22 -69.1315C4416.2 -74.0515 4418.52 -78.7581 4420.14 -83.2515C4420.98 -85.5648 4421.8 -89.0014 4422.58 -93.5614C4423.47 -98.7414 4424.25 -102.191 4424.94 -103.911C4428.03 -111.791 4429.85 -115.411 4431.2 -121.781C4431.7 -124.108 4432.47 -126.808 4433.52 -129.881C4433.54 -129.955 4433.58 -129.961 4433.64 -129.901C4433.72 -129.828 4433.81 -129.785 4433.94 -129.771C4434.03 -129.765 4434.09 -129.798 4434.1 -129.871C4434.16 -130.158 4434.26 -130.398 4434.4 -130.591C4434.81 -131.185 4434.92 -131.128 4434.74 -130.421C4432.32 -120.475 4429.96 -111.175 4427.67 -102.521C4427.1 -100.381 4426.77 -97.6014 4426.22 -95.1514C4426.17 -94.9314 4426.29 -94.8215 4426.56 -94.8215H4426.87C4426.97 -94.8215 4427.03 -94.8615 4427.05 -94.9415C4429.26 -102.915 4430.73 -108.651 4431.46 -112.151C4432.69 -117.985 4434.36 -123.671 4436.5 -129.211C4438.16 -133.505 4440.64 -141.041 4443.95 -151.821C4445.57 -157.115 4446.93 -162.431 4448.03 -167.771C4448.47 -168.891 4448.91 -170.008 4449.35 -171.121C4449.74 -172.141 4450.04 -173.288 4450.24 -174.561C4450.6 -176.821 4451.2 -179.085 4452.08 -181.351C4453.22 -184.325 4453.97 -186.561 4454.32 -188.061C4455.2 -191.695 4456.33 -195.648 4457.73 -199.921C4458.11 -201.088 4458.67 -202.268 4459.41 -203.461C4460.21 -204.751 4460.62 -206.771 4461.95 -208.061C4464.02 -210.041 4466.85 -211.281 4470.43 -211.781ZM495.047 76.3085C499.407 76.1385 509.079 74.4185 511.222 70.6685C511.329 70.4847 511.382 70.2839 511.377 70.0811C511.373 69.8783 511.312 69.6788 511.2 69.4977C511.086 69.3167 510.924 69.159 510.723 69.0361C510.524 68.9132 510.292 68.8286 510.045 68.7886C500.794 67.2486 491.443 66.5385 480.83 66.4385C458.537 66.2118 435.386 66.1685 411.375 66.3085C406.174 66.3385 393.157 65.4085 389.665 69.4285C386.853 72.6685 389.677 75.1285 392.08 78.1185C394.433 81.0785 394.891 85.2085 394.297 88.7085C394.236 89.0755 394.344 89.4477 394.599 89.7552C394.855 90.0627 395.24 90.2842 395.684 90.3785C398.706 91.0118 401.889 91.3118 405.232 91.2784C407.726 91.2518 409.01 91.2385 409.084 91.2385C433.763 91.4652 460.023 91.5685 487.864 91.5485C488.076 91.5475 488.279 91.4849 488.436 91.3726C488.595 91.2602 488.694 91.1057 488.719 90.9385C489.487 85.4451 490.032 81.8719 490.354 80.2186C490.617 78.8319 491.072 77.8319 491.716 77.2186C492.277 76.6719 493.388 76.3685 495.047 76.3085ZM723.437 73.6785L723.461 75.6185C723.461 75.6902 723.496 75.7587 723.559 75.8094C723.622 75.86 723.706 75.8885 723.796 75.8885H724.019C728.621 75.8561 733.035 75.6947 736.29 75.4398C739.546 75.1848 741.377 74.857 741.382 74.5284C741.385 74.3654 740.938 74.207 740.065 74.0624C739.191 73.9179 737.911 73.79 736.296 73.686C734.681 73.5819 732.764 73.5038 730.652 73.4562C728.542 73.4086 726.279 73.3925 723.994 73.4086H723.771C723.682 73.4086 723.598 73.4369 723.534 73.4875C723.471 73.5382 723.437 73.6069 723.437 73.6785Z" fill="black"/>
<path d="M13.2898 30.3587L13.3393 55.5287C13.3393 56.1754 12.9389 56.4886 12.138 56.4688L11.5064 56.4487C10.722 56.4287 10.3505 56.1021 10.3918 55.4688L12.0018 29.9688C12.6458 29.9688 13.0752 30.0987 13.2898 30.3587Z" fill="#800C38"/>
<path d="M723.438 73.6784C723.438 73.6068 723.472 73.5381 723.535 73.4874C723.599 73.4368 723.683 73.4084 723.772 73.4084H723.995C726.28 73.3923 728.541 73.4085 730.653 73.4561C732.763 73.5037 734.682 73.5817 736.297 73.6858C737.912 73.7898 739.192 73.9178 740.065 74.0624C740.939 74.2069 741.386 74.3653 741.383 74.5284C741.378 74.8569 739.546 75.1846 736.29 75.4396C733.036 75.6946 728.622 75.856 724.02 75.8884H723.797C723.708 75.8884 723.623 75.8599 723.56 75.8093C723.497 75.7586 723.462 75.69 723.462 75.6184L723.438 73.6784Z" fill="#800C38"/>
<path d="M126.363 91.8483L0 91.5483V89.7383C15.3655 90.1916 30.7433 90.3316 46.1336 90.1583C72.9344 89.8483 99.5742 90.0683 126.536 90.6483C126.941 90.655 127.263 90.7483 127.502 90.9283C127.898 91.2083 127.849 91.4216 127.353 91.5683L126.363 91.8483Z" fill="#800C38"/>
<path d="M126.363 91.8498L127.353 91.5698C127.849 91.4231 127.898 91.2098 127.502 90.9298C127.263 90.7498 126.941 90.6565 126.536 90.6498C99.5742 90.0698 72.9344 89.8498 46.1336 90.1598C30.7433 90.3331 15.3655 90.1931 0 89.7398V29.1198L3.34391 29.0998C6.35756 29.9931 9.24323 30.2831 12.0009 29.9698L10.3909 55.4698C10.3496 56.1031 10.7212 56.4298 11.5055 56.4498L12.1372 56.4698C12.9381 56.4898 13.3385 56.1765 13.3385 55.5298L13.2889 30.3598C13.3797 30.3198 13.4706 30.2765 13.5614 30.2298C13.5862 30.2165 13.5986 30.2265 13.5986 30.2598L13.5862 37.3698C13.5862 37.7365 13.8215 37.9165 14.2921 37.9098C26.7182 37.7898 37.8729 36.9865 47.756 35.4998C65.8379 32.7798 82.6689 27.1498 99.5619 20.4098C99.8991 20.2765 100.282 20.2396 100.649 20.305C101.016 20.3704 101.344 20.5342 101.581 20.7698C101.96 21.1498 102.183 21.7031 102.249 22.4298C102.464 24.7365 102.58 27.1198 102.596 29.5798C102.621 32.6464 102.526 42.5065 102.311 59.1598C102.278 61.8198 103.839 63.2465 106.993 63.4398C130.788 64.9065 157.049 65.0765 185.773 63.9498C193.414 63.6498 195.755 59.3298 198.591 55.9898C198.823 55.7165 199.145 55.5998 199.557 55.6398C208.466 56.4798 224.187 58.0931 246.719 60.4798C251.094 60.9465 255.602 61.3331 260.243 61.6398C274.238 62.5898 285.991 62.7198 313.436 63.3298C319.959 63.4764 327.353 64.3131 335.617 65.8398C350.024 68.4931 361.093 74.8998 368.821 85.0598C369.366 85.7798 369.796 86.9798 370.109 88.6598C370.14 88.8238 370.129 88.9905 370.076 89.1491C370.022 89.3076 369.928 89.4544 369.799 89.5798C367.793 91.6198 359.508 91.0998 354.839 91.0698C348.423 91.0165 344.497 90.9965 343.061 91.0098C299.54 91.5565 272.293 91.8231 261.32 91.8098C235.783 91.7898 217.722 91.7764 207.137 91.7698C180.221 91.7498 153.296 91.7765 126.363 91.8498Z" fill="#001211"/>
<path d="M491.718 77.2207C491.074 77.834 490.62 78.834 490.355 80.2207C490.033 81.874 489.488 85.4473 488.721 90.9407C488.697 91.1079 488.597 91.2623 488.439 91.3747C488.282 91.487 488.078 91.5496 487.866 91.5506C460.025 91.5706 433.765 91.4673 409.086 91.2406C409.012 91.2406 407.729 91.254 405.234 91.2807C401.89 91.314 398.707 91.014 395.686 90.3807C395.242 90.2864 394.857 90.0648 394.602 89.7573C394.346 89.4498 394.238 89.0777 394.298 88.7106C394.893 85.2106 394.435 81.0806 392.082 78.1206C389.679 75.1306 386.855 72.6706 389.667 69.4306C393.159 65.4106 406.176 66.3406 411.377 66.3106C435.388 66.1706 458.539 66.214 480.831 66.4407C491.445 66.5407 500.796 67.2507 510.047 68.7907C510.294 68.8307 510.525 68.9153 510.726 69.0382C510.925 69.1611 511.088 69.3189 511.202 69.4999C511.314 69.681 511.375 69.8804 511.38 70.0832C511.384 70.286 511.33 70.4869 511.224 70.6707C509.081 74.4207 499.409 76.1406 495.049 76.3106C493.39 76.3706 492.28 76.674 491.718 77.2207Z" fill="#001211"/>
</g>
</g>
<defs>
<clipPath id="clip0_1182_16439">
<rect width="4000" height="145" fill="white"/>
</clipPath>
</defs>
</svg>
