<svg width="40" height="40" viewBox="0 0 40 40" fill="none" xmlns="http://www.w3.org/2000/svg">
<path d="M20 5C28.2846 5 35 11.7154 35 20C35 28.2846 28.2846 35 20 35C11.7154 35 5 28.2846 5 20C5 11.7154 11.7154 5 20 5ZM25.1743 26.1141C25.4502 25.2676 26.7428 16.8311 26.9026 15.1687C26.9509 14.6652 26.7917 14.3307 26.48 14.1813C26.103 14 25.5448 14.0907 24.8972 14.3241C24.0089 14.6443 12.6533 19.4659 11.9972 19.745C11.375 20.0091 10.7867 20.2974 10.7867 20.7148C10.7867 21.0083 10.9609 21.1733 11.4409 21.3448C11.9404 21.5228 13.1985 21.9043 13.9413 22.1091C14.6567 22.3067 15.4713 22.1352 15.9278 21.8515C16.4117 21.5509 21.9963 17.8139 22.3974 17.4865C22.7978 17.1591 23.1174 17.5785 22.79 17.9065C22.4626 18.2339 18.6291 21.9546 18.1237 22.4698C17.51 23.0952 17.9457 23.7435 18.3572 24.003C18.8274 24.2991 22.2089 26.5674 22.7183 26.9313C23.2276 27.2952 23.7441 27.4602 24.217 27.4602C24.6898 27.4602 24.9389 26.8374 25.1743 26.1141Z" fill="#00F0FF"/>
</svg>
